# xmcd CD database file
#
# Track frame offsets:
#	150
#	11983
#	26532
#	39485
#	53684
#	64763
#	78820
#	90143
#	106375
#	123707
#	138637
#	157070
#	176206
#	191681
#	207696
#
# Disc length: 2986 seconds
#
# Revision: 1
# Processed by: cddbd v1.5.2PL0 Copyright (c) Steve Scherf et al.
# Submitted via: CDex 1.51
#
DISCID=d20ba80f
DTITLE=Various Artist - Bal Populaire  [CD 1-2]
DYEAR=2011
DGENRE=Ambiance
TTITLE0=Michel Pruvot - Bourrasque   { Valse }
TTITLE1=Jacques Vlecken - Indifférence   { Valse }  
TTITLE2=Axel Duval - Domino   { Valse }  
TTITLE3=Carlos Rodriguez - La Cumparsita   { Tango } 
TTITLE4=Antonn Carretaz - Fanny   { Tango } 
TTITLE5=Sabrina Guilain - La Fille de Dolorès   { Paso }  
TTITLE6=Denis Gigot - Adios Sévilla   { Paso }   
TTITLE7=Bézu - Et viva Espana   { Ambiance }   
TTITLE8=Les Charlots - Sonner les trompettes   { Ambiance }   
TTITLE9=Gloria Lasso and  Alma Ritano - Volare   { Gipsy }   
TTITLE10=El Chato - Que bonita eres   { Gipsy }   
TTITLE11=Los Machucambos - Pépito (Remix 2002)   { Latino }   
TTITLE12=La Compagnie Créole - La Vida es  { Latino }   
TTITLE13=Xanti - La lambada do Kuduro  { Lambada }    
TTITLE14=Paolina - La lambada  { Lambada }    
EXTD=YEAR: 2011
EXTT0=
EXTT1=
EXTT2=
EXTT3=
EXTT4=
EXTT5=
EXTT6=
EXTT7=
EXTT8=
EXTT9=
EXTT10=
EXTT11=
EXTT12=
EXTT13=
EXTT14=
PLAYORDER=
